<?xml version="1.0" encoding="utf-8"?>
<!-- Generator: Adobe Illustrator 21.0.0, SVG Export Plug-In . SVG Version: 6.00 Build 0)  -->
<svg version="1.1" id="图层_1" xmlns="http://www.w3.org/2000/svg" xmlns:xlink="http://www.w3.org/1999/xlink" x="0px" y="0px"
	 viewBox="0 0 1162.2 841.9" style="enable-background:new 0 0 1162.2 841.9;" xml:space="preserve">
<style type="text/css">
	.st0{fill:#FFFFFF;}
</style>
<g id="XMLID_12_">
	<path id="XMLID_10_" class="st0" d="M582.1,365.4h-81.7c-58.4,0-89.7,23.4-90.4,67.8c0,2,0,47.9,60.6,58
		c3.5,0.3,34.1,3.5,35.8,20.2c0.7,6.2-0.9,11.6-4.5,15.6c-6.6,7.4-18.2,9-26.7,9h-49.9c-24.7,0-29.4,17.8-29.9,20.1l-2.3,14.6
		c-0.2,1.2,0.1,2.3,0.9,3.2c0.8,0.9,1.9,1.4,3,1.4h97.4c44.2,0,70-18.4,76.6-54.8c0.3-1.7,7.4-42.4-39.4-63.4
		c-4-1.8-10.1-3.2-16.7-4.8c-23.5-5.5-44.4-12.1-41.6-32c0.5-4.6,4.8-19.6,37.7-19.6h53.3c13.9,0,18.1-6.4,19.3-9.4
		c0.3-0.5,0.4-1,0.5-1.6l2-20.1c0.1-1.1-0.3-2.3-1-3.1C584.3,365.9,583.2,365.4,582.1,365.4z"/>
	<path id="XMLID_9_" class="st0" d="M679,365.4h-57.4c-2,0-3.7,1.5-4,3.5l-24.5,202c-0.1,1.1,0.2,2.3,1,3.1c0.8,0.9,1.8,1.3,3,1.3
		h57.3c2,0,3.7-1.5,4-3.5l24.6-202c0.1-1.1-0.2-2.3-1-3.1C681.2,365.9,680.1,365.4,679,365.4z"/>
	<path id="XMLID_8_" class="st0" d="M381.9,365.4h-57.4c-2,0-3.7,1.5-4,3.5l-24.5,202c-0.1,1.1,0.2,2.3,1,3.1c0.7,0.9,1.8,1.3,3,1.3
		h57.3c2,0,3.7-1.5,4-3.5l24.6-202c0.1-1.1-0.2-2.3-1-3.1C384.2,365.9,383.1,365.4,381.9,365.4z"/>
	<path id="XMLID_7_" class="st0" d="M392.2,306.8c-0.8-0.8-1.8-1.3-3-1.3h-45.7c-6.8,0.2-15.2,3.5-16.8,12.3
		c-0.9,6.8-1.9,14.7-2.9,23.6l-0.2,2.1c-0.1,1.1,0.2,2.3,1,3.1c0.8,0.8,1.8,1.3,3,1.3H385c2,0,3.7-1.5,4-3.5l4.2-34.5
		C393.3,308.8,393,307.6,392.2,306.8z"/>
	<path id="XMLID_6_" class="st0" d="M846.4,365.4H718.5c-2,0-3.7,1.5-4,3.5l-24.5,202c-0.1,1.1,0.2,2.2,1,3.1c0.8,0.8,1.9,1.3,3,1.3
		h29.2c3-0.1,29.4-1.9,32.2-26.4l17.2-141.8h42.2c0.4,0,10.1,0.3,17.8,8.8c6.9,7.6,10.6,12.4,8.6,34.1l-11.1,121
		c-0.1,1.1,0.3,2.2,1,3.1c0.8,0.8,1.8,1.3,3,1.3h52.2c2.1,0,3.8-1.6,4-3.7l0.1-1.8c1.7-23,6.7-88.4,10.9-141.9
		c1.5-19.2-2.8-34.4-12.7-45.2C872.5,365.6,846.6,365.4,846.4,365.4z"/>
	<path id="XMLID_5_" class="st0" d="M689.3,306.8c-0.8-0.8-1.8-1.3-3-1.3h-45.7c-6.8,0.2-15.2,3.5-16.7,12.3
		c-0.9,6.8-1.9,14.7-2.9,23.6l-0.2,2.1c-0.1,1.1,0.2,2.3,1,3.1c0.8,0.8,1.8,1.3,3,1.3h57.4c2,0,3.7-1.5,4-3.5l4.2-34.5
		C690.4,308.8,690,307.6,689.3,306.8z"/>
	<path id="XMLID_4_" class="st0" d="M291.5,305.4c-13.4,0-26.7,0-40.1,0c-63.7,0-108.3,24.3-136.4,74.4L14.5,569.5
		c-0.6,1.2-0.6,2.7,0.1,3.9c0.7,1.2,2,1.9,3.4,1.9h57.4c1.5,0,2.8-0.8,3.5-2.1l0.5-1c24.4-46.6,76.1-145.7,90.3-172.7
		c16.2-30.8,51.3-51.6,87.5-51.6c10.1,0,20.2,0,30.3,0c2,0,3.7-1.5,4-3.5l3.9-34.5c0.1-1.1-0.2-2.3-1-3.1
		C293.7,305.9,292.6,305.4,291.5,305.4z"/>
	<path id="XMLID_3_" class="st0" d="M284.5,365.4h-30.7c-14.5,0-28,12.1-30.6,27.5c-1,5.9-5.6,39.7-10.7,77.1l-0.4,2.8h-57.3
		c-1.5,0-2.9,0.9-3.6,2.2l-20.6,39.7c-0.6,1.2-0.5,2.7,0.2,3.9c0.7,1.2,2,1.9,3.4,1.9h71.5l-6.7,50.4c-0.1,1.1,0.2,2.3,0.9,3.2
		c0.7,0.9,1.9,1.4,3,1.4h56.9c2,0,3.7-1.5,4-3.5l24.6-202c0.1-1.1-0.2-2.3-1-3.1C286.7,365.9,285.6,365.4,284.5,365.4z"/>
	<path id="XMLID_13_" class="st0" d="M1128.2,383.1c-13.3-15.7-40-23.1-83.9-23.1c-100.6,0-109.5,37.8-117.7,110.1
		c-4.7,41.7-6.6,70.3,9,87.8c13.2,14.7,39.2,21.6,81.9,21.6c99.6,0,104.8-31.7,116.2-101.2l1.5-9.1
		C1141.9,429.1,1143.1,400.7,1128.2,383.1z M1070.8,471.7c-8.1,50.7-24.6,76.5-49.1,76.5l-1.3,0c-8.6-0.3-15.9-3.9-21.2-10.3
		c-13.3-16.2-11.8-47-8.1-69.9c7.7-48.8,25.1-74.5,50-74.5l1.4,0c8.7,0.3,16,3.8,21.1,9.9C1073.6,415.5,1076,438.5,1070.8,471.7z"/>
</g>
</svg>
