<svg xmlns="http://www.w3.org/2000/svg" viewBox="0 0 141.91 34.55"><defs><style>.cls-1{fill:#005bac;}</style></defs><title>资源 1</title><g id="图层_2" data-name="图层 2"><g id="图层_1-2" data-name="图层 1"><path class="cls-1" d="M84.73,0H79a2,2,0,0,0-2.11,1.55c-.12.85-.24,1.86-.37,3l0,.27a.5.5,0,0,0,.5.56H84.2a.5.5,0,0,0,.5-.44L85.23.56a.51.51,0,0,0-.12-.4A.51.51,0,0,0,84.73,0ZM34.09,7.56H30.22A4.11,4.11,0,0,0,26.37,11c-.12.74-.71,5-1.34,9.71l0,.35H17.75a.51.51,0,0,0-.45.28l-2.6,5a.5.5,0,0,0,.45.72h9l-.85,6.35a.5.5,0,0,0,.5.57H31a.5.5,0,0,0,.5-.44l3.1-25.46a.5.5,0,0,0-.5-.56ZM29.92,0H35a.5.5,0,0,1,.38.17.51.51,0,0,1,.13.39L35,4.91a.5.5,0,0,1-.5.45H30.67a12.67,12.67,0,0,0-11,6.5c-1.79,3.4-8.31,15.9-11.38,21.77l-.07.13a.5.5,0,0,1-.45.27H.5a.5.5,0,0,1-.43-.24.51.51,0,0,1,0-.5L12.73,9.38C16.27,3.07,21.89,0,29.92,0ZM47.29,0H41.54a2,2,0,0,0-2.11,1.55c-.12.85-.24,1.86-.37,3l0,.27a.51.51,0,0,0,.12.39.5.5,0,0,0,.38.17h7.24a.5.5,0,0,0,.5-.44L47.79.56a.5.5,0,0,0-.5-.56Zm-.92,7.56H39.14a.5.5,0,0,0-.5.44L35.56,33.47a.5.5,0,0,0,.5.56h7.22a.5.5,0,0,0,.5-.44l3.1-25.46a.51.51,0,0,0-.12-.39.5.5,0,0,0-.38-.17Zm25.23,0H61.31c-7.36,0-11.3,3-11.4,8.55,0,.25,0,6,7.64,7.31.44,0,4.29.44,4.51,2.55a2.48,2.48,0,0,1-.57,2,4.56,4.56,0,0,1-3.37,1.13H51.83c-3.12,0-3.71,2.24-3.78,2.53l-.29,1.84a.51.51,0,0,0,.12.41.5.5,0,0,0,.38.18H60.54c5.57,0,8.82-2.33,9.66-6.91,0-.22.93-5.34-5-8a13.32,13.32,0,0,0-2.1-.6c-3-.7-5.6-1.53-5.25-4C58,13.92,58.5,12,62.65,12h6.71c1.75,0,2.28-.81,2.44-1.18a.53.53,0,0,0,.06-.2l.25-2.53A.51.51,0,0,0,72,7.73a.5.5,0,0,0-.37-.17Zm12.21,0H76.59a.5.5,0,0,0-.5.44L73,33.47a.5.5,0,0,0,.5.56h7.22a.5.5,0,0,0,.5-.44l3.1-25.46a.51.51,0,0,0-.12-.39.5.5,0,0,0-.38-.17Zm21.1,0H88.8a.5.5,0,0,0-.5.45L85.21,33.47a.5.5,0,0,0,.13.39.51.51,0,0,0,.37.17h3.68c.38,0,3.71-.24,4.06-3.33l2.17-17.87h5.31a3.34,3.34,0,0,1,2.24,1.1c.87,1,1.34,1.56,1.09,4.3l-1.4,15.25a.5.5,0,0,0,.13.39.51.51,0,0,0,.37.16h6.58a.5.5,0,0,0,.5-.46l0-.22c.22-2.9.84-11.14,1.37-17.89a7.22,7.22,0,0,0-1.6-5.69,8,8,0,0,0-5.3-2.2Zm24.95-.68c-12.68,0-13.81,4.76-14.84,13.88-.59,5.26-.83,8.86,1.13,11.07,1.66,1.86,4.94,2.72,10.32,2.72,12.55,0,13.21-4,14.65-12.75l.19-1.15c.84-5.06,1-8.64-.88-10.86-1.68-2-5-2.91-10.57-2.91Zm-6.71,13.6c1-6.15,3.16-9.4,6.31-9.4h.18a3.49,3.49,0,0,1,2.65,1.25c1.26,1.54,1.57,4.43.9,8.62-1,6.39-3.1,9.64-6.19,9.64h-.16a3.52,3.52,0,0,1-2.67-1.29C122.5,27.25,122.7,23.38,123.16,20.48Z"/></g></g></svg>